<svg width="24" height="24" viewBox="0 0 24 24" fill="none" xmlns="http://www.w3.org/2000/svg">
<path d="M10.7028 1.1055C11.4503 0.468469 12.5497 0.468468 13.2972 1.1055L15.181 2.71082C15.5013 2.98381 15.8996 3.14878 16.3191 3.18226L18.7863 3.37914C19.7653 3.45727 20.5427 4.23469 20.6209 5.21371L20.8177 7.68086C20.8512 8.1004 21.0162 8.49868 21.2892 8.819L22.8945 10.7028C23.5315 11.4503 23.5315 12.5497 22.8945 13.2972L21.2892 15.181C21.0162 15.5013 20.8512 15.8996 20.8177 16.3191L20.6209 18.7863C20.5427 19.7653 19.7653 20.5427 18.7863 20.6209L16.3191 20.8177C15.8996 20.8512 15.5013 21.0162 15.181 21.2892L13.2972 22.8945C12.5497 23.5315 11.4503 23.5315 10.7028 22.8945L8.819 21.2892C8.49868 21.0162 8.1004 20.8512 7.68086 20.8177L5.21371 20.6209C4.23469 20.5427 3.45727 19.7653 3.37914 18.7863L3.18226 16.3191C3.14878 15.8996 2.98381 15.5013 2.71082 15.181L1.1055 13.2972C0.468469 12.5497 0.468468 11.4503 1.1055 10.7028L2.71082 8.819C2.98381 8.49868 3.14878 8.1004 3.18226 7.68086L3.37914 5.21371C3.45727 4.23469 4.23469 3.45727 5.21371 3.37914L7.68086 3.18226C8.1004 3.14878 8.49868 2.98381 8.819 2.71082L10.7028 1.1055Z" fill="#4EA54B"/>
<path fill-rule="evenodd" clip-rule="evenodd" d="M11.2455 15.8199L16.8273 10C16.9424 9.87994 17 9.73776 17 9.57346C17 9.40916 16.9424 9.26698 16.8273 9.14692L15.9 8.18009C15.7848 8.06003 15.6485 8 15.4909 8C15.3333 8 15.197 8.06003 15.0818 8.18009L10.8364 12.6066L8.91818 10.6066C8.80303 10.4866 8.66667 10.4265 8.50909 10.4265C8.35151 10.4265 8.21515 10.4866 8.1 10.6066L7.17273 11.5735C7.05758 11.6935 7 11.8357 7 12C7 12.1643 7.05758 12.3065 7.17273 12.4265L10.4273 15.8199C10.5424 15.94 10.6788 16 10.8364 16C10.9939 16 11.1303 15.94 11.2455 15.8199Z" fill="white"/>
</svg>
